<?xml version="1.0" standalone="no"?>
<!DOCTYPE svg PUBLIC "-//W3C//DTD SVG 20010904//EN"
 "http://www.w3.org/TR/2001/REC-SVG-20010904/DTD/svg10.dtd">
<svg version="1.0" xmlns="http://www.w3.org/2000/svg"
 width="400.000000pt" height="400.000000pt" viewBox="0 0 400.000000 400.000000"
 preserveAspectRatio="xMidYMid meet">

<g transform="translate(0.000000,400.000000) scale(0.100000,-0.100000)"
fill="#1f242d" stroke="none">
<path d="M0 2000 l0 -2000 2000 0 2000 0 0 2000 0 2000 -2000 0 -2000 0 0
-2000z m3400 216 c-1 -15 -127 -446 -133 -452 -7 -7 -37 7 -37 19 0 11 90 329
116 408 12 39 18 46 34 42 11 -3 20 -10 20 -17z m-1143 -12 c15 -11 36 -37 46
-57 34 -68 -12 -153 -90 -166 -29 -5 -39 -12 -41 -28 -2 -11 -12 -29 -24 -39
-18 -17 -38 -19 -165 -19 -189 0 -183 -7 -183 185 0 101 3 140 13 144 6 3 103
4 214 3 186 -2 204 -4 230 -23z m-1327 -14 c18 -18 20 -33 20 -155 0 -187 17
-175 -249 -175 -177 0 -212 2 -225 16 -23 23 -23 295 0 318 13 14 48 16 225
16 196 0 210 -1 229 -20z m2260 -36 c12 -13 3 -25 -56 -85 l-68 -69 69 -70
c66 -66 68 -71 52 -87 -16 -17 -22 -13 -104 70 l-88 87 85 85 c46 47 87 85 91
85 4 0 12 -7 19 -16z m360 -69 l85 -85 -85 -85 c-85 -86 -106 -98 -117 -69 -4
11 16 38 63 85 l68 69 -68 69 c-47 47 -67 74 -63 85 11 29 32 17 117 -69z
m-2142 18 l3 -52 52 -3 52 -3 0 -35 0 -35 -52 -3 -52 -3 -3 -52 -3 -52 -35 0
-35 0 -3 52 -3 52 -52 3 -52 3 0 35 0 35 53 3 52 3 0 48 c0 57 5 63 45 59 29
-3 30 -5 33 -55z m1427 -43 l0 -35 -142 -3 c-135 -2 -142 -2 -148 18 -3 11 -3
29 0 40 6 20 13 20 148 18 l142 -3 0 -35z m3 -97 c5 -47 -17 -54 -159 -51
-134 3 -148 10 -135 62 l7 27 142 -3 142 -3 3 -32z m-566 -112 c21 -1 25 -5
21 -21 -3 -11 -17 -29 -31 -40 -23 -19 -41 -20 -259 -20 l-234 0 -24 25 c-14
13 -25 32 -25 42 0 17 16 18 263 17 144 -1 274 -2 289 -3z m-1242 -34 c0 -46
-6 -47 -330 -47 -324 0 -330 1 -330 47 l0 23 330 0 330 0 0 -23z"/>
<path d="M2170 2100 c0 -66 13 -76 58 -44 44 31 16 104 -40 104 -15 0 -18 -9
-18 -60z"/>
<path d="M504 2157 c-2 -7 -3 -65 -2 -128 l3 -114 198 -3 198 -2 -3 127 -3
128 -193 3 c-153 2 -194 0 -198 -11z"/>
</g>
</svg>
